<svg xmlns="http://www.w3.org/2000/svg" viewBox="0 0 179.000000 179.000000" fill-rule="evenodd">
 <g transform="translate(0.000000,179.000000) scale(0.100000,-0.100000)">
  <path fill="#98A2AE" d="M754 1596 c-149 -34 -266 -100 -369 -207 -85 -89 -140 -183 -173
-294 -78 -268 -2 -541 204 -734 213 -199 529 -240 800 -105 225 113 368 340
381 604 6 122 -9 209 -56 321 -78 187 -268 352 -466 405 -83 22 -245 27 -321
10z m286 -68 c94 -22 208 -86 288 -163 120 -114 190 -254 207 -416 27 -253
-124 -522 -358 -638 -110 -54 -206 -75 -322 -68 -265 16 -484 185 -576 444
-30 82 -37 265 -15 353 55 222 225 407 436 475 105 35 227 39 340 13z"/>
  <path fill="#98A2AE" d="M841 1308 c-94 -17 -169 -101 -179 -199 -5 -53 8 -79 39 -79 24 0 32
16 35 68 8 136 163 194 269 101 46 -40 62 -97 46 -159 -18 -68 -39 -85 -158
-131 -65 -25 -86 -179 -25 -179 29 0 42 21 42 67 0 46 -4 43 79 74 86 32 134
108 134 209 -1 78 -14 114 -56 158 -60 63 -137 87 -226 70z"/>
  <path fill="#98A2AE" d="M836 599 c-30 -24 -35 -72 -10 -107 23 -33 86 -31 113 4 28 35 26 69
-4 99 -30 30 -64 32 -99 4z"/>
  <path fill="#98A2AE" d="M878 1543 c12 -2 30 -2 40 0 9 3 -1 5 -23 4 -22 0 -30 -2 -17 -4z"/>
  <path fill="#98A2AE" d="M395 1408 l-40 -43 43 40 c39 36 47 45 39 45 -2 0 -21 -19 -42 -42z"/>
  <path fill="#98A2AE" d="M858 1313 c7 -3 16 -2 19 1 4 3 -2 6 -13 5 -11 0 -14 -3 -6 -6z"/>
  <path fill="#98A2AE" d="M908 1313 c6 -2 18 -2 25 0 6 3 1 5 -13 5 -14 0 -19 -2 -12 -5z"/>
  <path fill="#98A2AE" d="M1055 1250 c10 -11 20 -20 23 -20 3 0 -3 9 -13 20 -10 11 -20 20 -23
20 -3 0 3 -9 13 -20z"/>
  <path fill="#98A2AE" d="M888 1243 c7 -3 16 -2 19 1 4 3 -2 6 -13 5 -11 0 -14 -3 -6 -6z"/>
  <path fill="#98A2AE" d="M1121 1114 c0 -11 3 -14 6 -6 3 7 2 16 -1 19 -3 4 -6 -2 -5 -13z"/>
  <path fill="#98A2AE" d="M1052 1080 c0 -19 2 -27 5 -17 2 9 2 25 0 35 -3 9 -5 1 -5 -18z"/>
  <path fill="#98A2AE" d="M651 1074 c0 -11 3 -14 6 -6 3 7 2 16 -1 19 -3 4 -6 -2 -5 -13z"/>
  <path fill="#98A2AE" d="M1121 1044 c0 -11 3 -14 6 -6 3 7 2 16 -1 19 -3 4 -6 -2 -5 -13z"/>
  <path fill="#98A2AE" d="M1533 895 c0 -33 2 -45 4 -27 2 18 2 45 0 60 -2 15 -4 0 -4 -33z"/>
  <path fill="#98A2AE" d="M868 463 c6 -2 18 -2 25 0 6 3 1 5 -13 5 -14 0 -19 -2 -12 -5z"/>
  <path fill="#98A2AE" d="M360 407 c0 -2 15 -16 33 -33 l32 -29 -29 33 c-28 30 -36 37 -36 29z"/>
  <path fill="#98A2AE" d="M1369 363 c-13 -16 -12 -17 4 -4 16 13 21 21 13 21 -2 0 -10 -8 -17
-17z"/>
  <path fill="#98A2AE" d="M843 173 c9 -2 23 -2 30 0 6 3 -1 5 -18 5 -16 0 -22 -2 -12 -5z"/>
  <path fill="#98A2AE" d="M918 173 c6 -2 18 -2 25 0 6 3 1 5 -13 5 -14 0 -19 -2 -12 -5z"/>
 </g>
</svg>
